<svg width="29" height="29" viewBox="0 0 29 29" fill="none" xmlns="http://www.w3.org/2000/svg">
<path d="M26.5833 8.7605H19.3333C18.8378 8.7605 18.427 8.34967 18.427 7.85425C18.427 7.35883 18.8378 6.948 19.3333 6.948H26.5833C27.0787 6.948 27.4895 7.35883 27.4895 7.85425C27.4895 8.34967 27.0787 8.7605 26.5833 8.7605Z" fill="white"/>
<path d="M7.25008 8.7605H2.41675C1.92133 8.7605 1.5105 8.34967 1.5105 7.85425C1.5105 7.35883 1.92133 6.948 2.41675 6.948H7.25008C7.7455 6.948 8.15633 7.35883 8.15633 7.85425C8.15633 8.34967 7.7455 8.7605 7.25008 8.7605Z" fill="white"/>
<path d="M12.0834 12.9896C9.25591 12.9896 6.948 10.6817 6.948 7.85417C6.948 5.02667 9.25591 2.71875 12.0834 2.71875C14.9109 2.71875 17.2188 5.02667 17.2188 7.85417C17.2188 10.6817 14.9109 12.9896 12.0834 12.9896ZM12.0834 4.53125C10.2467 4.53125 8.7605 6.0175 8.7605 7.85417C8.7605 9.69083 10.2467 11.1771 12.0834 11.1771C13.9201 11.1771 15.4063 9.69083 15.4063 7.85417C15.4063 6.0175 13.9201 4.53125 12.0834 4.53125Z" fill="white"/>
<path d="M26.5833 22.052H21.75C21.2546 22.052 20.8438 21.6412 20.8438 21.1458C20.8438 20.6503 21.2546 20.2395 21.75 20.2395H26.5833C27.0788 20.2395 27.4896 20.6503 27.4896 21.1458C27.4896 21.6412 27.0788 22.052 26.5833 22.052Z" fill="white"/>
<path d="M9.66675 22.052H2.41675C1.92133 22.052 1.5105 21.6412 1.5105 21.1458C1.5105 20.6503 1.92133 20.2395 2.41675 20.2395H9.66675C10.1622 20.2395 10.573 20.6503 10.573 21.1458C10.573 21.6412 10.1622 22.052 9.66675 22.052Z" fill="white"/>
<path d="M16.9167 26.2813C14.0892 26.2813 11.7812 23.9734 11.7812 21.1459C11.7812 18.3184 14.0892 16.0105 16.9167 16.0105C19.7442 16.0105 22.0521 18.3184 22.0521 21.1459C22.0521 23.9734 19.7442 26.2813 16.9167 26.2813ZM16.9167 17.823C15.08 17.823 13.5938 19.3092 13.5938 21.1459C13.5938 22.9826 15.08 24.4688 16.9167 24.4688C18.7533 24.4688 20.2396 22.9826 20.2396 21.1459C20.2396 19.3092 18.7533 17.823 16.9167 17.823Z" fill="white"/>
</svg>
